<svg id="visual" viewBox="0 0 900 200" width="1500" height="200" xmlns="http://www.w3.org/2000/svg" xmlns:xlink="http://www.w3.org/1999/xlink" version="1.1"><path d="M0 21L16.7 26.3C33.3 31.7 66.7 42.3 100 47.3C133.3 52.3 166.7 51.7 200 48.3C233.3 45 266.7 39 300 36.3C333.3 33.7 366.7 34.3 400 35.3C433.3 36.3 466.7 37.7 500 38C533.3 38.3 566.7 37.7 600 42.3C633.3 47 666.7 57 700 63.3C733.3 69.7 766.7 72.3 800 67C833.3 61.7 866.7 48.3 883.3 41.7L900 35L900 0L883.3 0C866.7 0 833.3 0 800 0C766.7 0 733.3 0 700 0C666.7 0 633.3 0 600 0C566.7 0 533.3 0 500 0C466.7 0 433.3 0 400 0C366.7 0 333.3 0 300 0C266.7 0 233.3 0 200 0C166.7 0 133.3 0 100 0C66.7 0 33.3 0 16.7 0L0 0Z" fill="#004cbb"></path><path d="M0 31L16.7 36.3C33.3 41.7 66.7 52.3 100 56.7C133.3 61 166.7 59 200 57.3C233.3 55.7 266.7 54.3 300 52.3C333.3 50.3 366.7 47.7 400 46.7C433.3 45.7 466.7 46.3 500 47.7C533.3 49 566.7 51 600 56.3C633.3 61.7 666.7 70.3 700 75.7C733.3 81 766.7 83 800 76.3C833.3 69.7 866.7 54.3 883.3 46.7L900 39L900 33L883.3 39.7C866.7 46.3 833.3 59.7 800 65C766.7 70.3 733.3 67.7 700 61.3C666.7 55 633.3 45 600 40.3C566.7 35.7 533.3 36.3 500 36C466.7 35.7 433.3 34.3 400 33.3C366.7 32.3 333.3 31.7 300 34.3C266.7 37 233.3 43 200 46.3C166.7 49.7 133.3 50.3 100 45.3C66.7 40.3 33.3 29.7 16.7 24.3L0 19Z" fill="#005feb"></path><path d="M0 95L16.7 94.3C33.3 93.7 66.7 92.3 100 94.3C133.3 96.3 166.7 101.7 200 102.3C233.3 103 266.7 99 300 95C333.3 91 366.7 87 400 89.3C433.3 91.7 466.7 100.3 500 102C533.3 103.7 566.7 98.3 600 98.7C633.3 99 666.7 105 700 107C733.3 109 766.7 107 800 101.7C833.3 96.3 866.7 87.7 883.3 83.3L900 79L900 37L883.3 44.7C866.7 52.3 833.3 67.7 800 74.3C766.7 81 733.3 79 700 73.7C666.7 68.3 633.3 59.7 600 54.3C566.7 49 533.3 47 500 45.7C466.7 44.3 433.3 43.7 400 44.7C366.7 45.7 333.3 48.3 300 50.3C266.7 52.3 233.3 53.7 200 55.3C166.7 57 133.3 59 100 54.7C66.7 50.3 33.3 39.7 16.7 34.3L0 29Z" fill="#367cff"></path><path d="M0 121L16.7 121C33.3 121 66.7 121 100 124C133.3 127 166.7 133 200 132.3C233.3 131.7 266.7 124.3 300 120C333.3 115.7 366.7 114.3 400 115.3C433.3 116.3 466.7 119.7 500 121C533.3 122.3 566.7 121.7 600 123.3C633.3 125 666.7 129 700 128C733.3 127 766.7 121 800 117.7C833.3 114.3 866.7 113.7 883.3 113.3L900 113L900 77L883.3 81.3C866.7 85.7 833.3 94.3 800 99.7C766.7 105 733.3 107 700 105C666.7 103 633.3 97 600 96.7C566.7 96.3 533.3 101.7 500 100C466.7 98.3 433.3 89.7 400 87.3C366.7 85 333.3 89 300 93C266.7 97 233.3 101 200 100.3C166.7 99.7 133.3 94.3 100 92.3C66.7 90.3 33.3 91.7 16.7 92.3L0 93Z" fill="#6198ff"></path><path d="M0 145L16.7 144C33.3 143 66.7 141 100 143C133.3 145 166.7 151 200 152C233.3 153 266.7 149 300 145.7C333.3 142.3 366.7 139.7 400 140C433.3 140.3 466.7 143.7 500 145.3C533.3 147 566.7 147 600 151.3C633.3 155.7 666.7 164.3 700 164.7C733.3 165 766.7 157 800 152.7C833.3 148.3 866.7 147.7 883.3 147.3L900 147L900 111L883.3 111.3C866.7 111.7 833.3 112.3 800 115.7C766.7 119 733.3 125 700 126C666.7 127 633.3 123 600 121.3C566.7 119.7 533.3 120.3 500 119C466.7 117.7 433.3 114.3 400 113.3C366.7 112.3 333.3 113.7 300 118C266.7 122.3 233.3 129.7 200 130.3C166.7 131 133.3 125 100 122C66.7 119 33.3 119 16.7 119L0 119Z" fill="#6198ff"></path><path d="M0 159L16.7 158.7C33.3 158.3 66.7 157.7 100 161C133.3 164.3 166.7 171.7 200 172C233.3 172.3 266.7 165.7 300 161C333.3 156.3 366.7 153.7 400 155.3C433.3 157 466.7 163 500 163.7C533.3 164.3 566.7 159.7 600 161.3C633.3 163 666.7 171 700 173C733.3 175 766.7 171 800 167.3C833.3 163.7 866.7 160.3 883.3 158.7L900 157L900 145L883.3 145.3C866.7 145.7 833.3 146.3 800 150.7C766.7 155 733.3 163 700 162.7C666.7 162.3 633.3 153.7 600 149.3C566.7 145 533.3 145 500 143.3C466.7 141.7 433.3 138.3 400 138C366.7 137.7 333.3 140.3 300 143.7C266.7 147 233.3 151 200 150C166.7 149 133.3 143 100 141C66.7 139 33.3 141 16.7 142L0 143Z" fill="#367cff"></path><path d="M0 185L16.7 183C33.3 181 66.7 177 100 178.3C133.3 179.7 166.7 186.3 200 187.7C233.3 189 266.7 185 300 182.3C333.3 179.7 366.7 178.3 400 179.7C433.3 181 466.7 185 500 185.3C533.3 185.7 566.7 182.3 600 183C633.3 183.7 666.7 188.3 700 190.3C733.3 192.3 766.7 191.7 800 189.7C833.3 187.7 866.7 184.3 883.3 182.7L900 181L900 155L883.3 156.7C866.7 158.3 833.3 161.7 800 165.3C766.7 169 733.3 173 700 171C666.7 169 633.3 161 600 159.3C566.7 157.7 533.3 162.3 500 161.7C466.7 161 433.3 155 400 153.3C366.7 151.7 333.3 154.3 300 159C266.7 163.7 233.3 170.3 200 170C166.7 169.7 133.3 162.3 100 159C66.7 155.7 33.3 156.3 16.7 156.7L0 157Z" fill="#005feb"></path><path d="M0 201L16.7 201C33.3 201 66.7 201 100 201C133.3 201 166.7 201 200 201C233.3 201 266.7 201 300 201C333.3 201 366.7 201 400 201C433.3 201 466.7 201 500 201C533.3 201 566.7 201 600 201C633.3 201 666.7 201 700 201C733.3 201 766.7 201 800 201C833.3 201 866.7 201 883.3 201L900 201L900 179L883.3 180.7C866.7 182.3 833.3 185.7 800 187.7C766.7 189.7 733.3 190.3 700 188.3C666.7 186.3 633.3 181.7 600 181C566.7 180.3 533.3 183.7 500 183.3C466.7 183 433.3 179 400 177.7C366.7 176.3 333.3 177.7 300 180.3C266.7 183 233.3 187 200 185.7C166.7 184.3 133.3 177.7 100 176.3C66.7 175 33.3 179 16.7 181L0 183Z" fill="#004cbb"></path>
</svg>